<svg width="512" height="512" fill="none" xmlns="http://www.w3.org/2000/svg"><path fill="#FFE42F" d="M0 0h512v512H0z"/><path d="M116.9 471V346h84.3v21.7h-57.9v29.8h53.5v21.8h-53.5v29.9h58.1V471H117ZM290 381.9c-.4-5-2.5-8.8-6.2-11.5a25 25 0 0 0-15.1-4c-4.3 0-8 .5-11 1.7s-5.2 2.9-6.8 5a12 12 0 0 0-2.3 7.2c-.1 2.2.4 4.2 1.4 5.9 1 1.6 2.5 3 4.3 4.3a33 33 0 0 0 6.4 3.1c2.4.9 5 1.6 7.7 2.2l11.2 2.7a79.2 79.2 0 0 1 15 4.9c4.6 2 8.5 4.5 11.9 7.5a31.2 31.2 0 0 1 10.6 24.4c0 7.6-2 14.3-5.9 19.9-3.8 5.6-9.3 9.9-16.6 13-7.2 3-15.9 4.6-26 4.6a68.8 68.8 0 0 1-26.4-4.7c-7.5-3-13.3-7.6-17.5-13.7a41 41 0 0 1-6.5-22.7h25.6c.2 4.2 1.4 7.7 3.6 10.5a20 20 0 0 0 8.6 6.3c3.6 1.4 7.7 2.1 12.2 2.1 4.5 0 8.4-.7 11.7-2 3.3-1.3 6-3 7.8-5.4 1.8-2.3 2.7-5 2.7-8 0-2.8-.8-5.2-2.5-7a19 19 0 0 0-7.2-5c-3.1-1.3-7-2.5-11.5-3.6l-13.7-3.4a57.1 57.1 0 0 1-25-12 28 28 0 0 1-9-22.1c0-7.6 2-14.2 6-19.9 4.1-5.6 9.8-10 17-13.2a59.7 59.7 0 0 1 24.4-4.8c9.2 0 17.3 1.6 24.3 4.8a35 35 0 0 1 22.2 33H290Zm44.9-36h32.6l34.5 84h1.4l34.5-84h32.6V471h-25.7v-81.4h-1l-32.4 80.8H394l-32.4-81.1h-1V471h-25.7V346Z" fill="#3C444F"/></svg>